<svg height="480pt" viewBox="0 0 480 480" width="480pt" xmlns="http://www.w3.org/2000/svg"><path d="m0 96h480v384h-480zm0 0" fill="#e8eff4"/><path d="m288 272h128c17.671875 0 32-14.328125 32-32v-64c0-17.671875-14.328125-32-32-32h-64c-17.671875 0-32 14.328125-32 32v64zm0 0" fill="#8bd2f5"/><path d="m272 480v-80c0-44.183594-35.816406-80-80-80h-80c-44.183594 0-80 35.816406-80 80v80" fill="#568e53"/><path d="m168 320h-56c-44.183594 0-80 35.816406-80 80v80h216v-80c0-44.183594-35.816406-80-80-80zm0 0" fill="#7ecb92"/><g fill="#568e53"><path d="m128 384 24-24.003906 24.003906 24.003906-24.003906 24zm0 0"/><path d="m176 480-16-80h-16l-16 80"/><path d="m192 400 15.6875-78.441406c-5.070312-1.007813-10.320312-1.558594-15.6875-1.558594h-8l-32 40zm0 0"/><path d="m112 400 40-40-32-40h-8c-5.367188 0-10.617188.550781-15.6875 1.558594zm0 0"/></g><path d="m120 320 32 40 32-40" fill="#db9b7c"/><path d="m96 272h-16c-13.257812 0-24-10.742188-24-24s10.742188-24 24-24h16" fill="#db9b7c"/><path d="m208 224h16c13.257812 0 24 10.742188 24 24s-10.742188 24-24 24h-16" fill="#efbe9a"/><path d="m216 184v72c0 35.34375-28.65625 64-64 64s-64-28.65625-64-64v-72" fill="#db9b7c"/><path d="m140 318.839844c29.609375-5.625 52-31.601563 52-62.839844v-72h-104v72c0 31.238281 22.390625 57.214844 52 62.839844zm0 0" fill="#efbe9a"/><path d="m168 168v8c0 26.511719-21.488281 48-48 48h-48v-40c0-30.929688 25.070312-56 56-56h48c30.929688 0 56 25.070312 56 56v40h-40c-13.257812 0-24-10.742188-24-24zm0 0" fill="#976947"/><path d="m207.496094 137.703125c-8.976563-6.117187-19.816406-9.703125-31.496094-9.703125h-48c-30.929688 0-56 25.070312-56 56v40h48c26.511719 0 48-21.488281 48-48v24c0 8.296875 4.207031 15.609375 10.609375 19.921875 18.09375-18.195313 29.390625-43.664063 29.390625-71.921875 0-3.480469-.175781-6.910156-.503906-10.296875zm0 0" fill="#c18e59"/><path d="m0 0h480v96h-480zm0 0" fill="#e4725f"/><path d="m64 48c0 8.835938-7.164062 16-16 16s-16-7.164062-16-16 7.164062-16 16-16 16 7.164062 16 16zm0 0" fill="#f0d365"/><path d="m128 48c0 8.835938-7.164062 16-16 16s-16-7.164062-16-16 7.164062-16 16-16 16 7.164062 16 16zm0 0" fill="#f0d365"/><path d="m192 48c0 8.835938-7.164062 16-16 16s-16-7.164062-16-16 7.164062-16 16-16 16 7.164062 16 16zm0 0" fill="#f0d365"/><path d="m344 200h16v16h-16zm0 0" fill="#fff"/><path d="m376 200h16v16h-16zm0 0" fill="#fff"/><path d="m408 200h16v16h-16zm0 0" fill="#fff"/></svg>