<svg height="512pt" viewBox="0 -68 512 512" width="512pt" xmlns="http://www.w3.org/2000/svg"><path d="m352.167969 344.15625v24.042969h-48.082031l-8.015626-24.042969zm0 0" fill="#dce1eb"/><path d="m264.015625 344.15625v24.042969h-40.074219l-16.027344-24.042969zm0 0" fill="#dce1eb"/><path d="m175.859375 344.15625v24.042969h-48.085937l-8.015626-24.042969zm0 0" fill="#dce1eb"/><path d="m87.703125 344.15625v24.042969h-48.085937l-8.015626-24.042969zm0 0" fill="#dce1eb"/><path d="m504.4375 7.558594v144.257812h-40.070312v192.339844h-456.808594v-336.597656zm0 0" fill="#06ccab"/><path d="m7.558594 7.558594h48.085937v336.597656h-48.085937zm0 0" fill="#11a892"/><path d="m464.367188 7.558594h40.074218v144.257812h-40.074218zm0 0" fill="#11a892"/><g fill="#fff"><path d="m456.808594 47.632812h15.121094v16.027344h-15.121094zm0 0"/><path d="m47.175781 63.660156h-15.121093v-31.601562h31.605468v15.117187h-16.484375zm0 0"/><path d="m424.296875 272.480469h16.03125v15.121093h-16.03125zm0 0"/><path d="m392.242188 304.539062h16.027343v15.121094h-16.027343zm0 0"/><path d="m180.542969 255.546875h-79.234375v-39.617187h15.121094v24.496093h48.992187v-50.652343l-64.113281-16.027344v-77.574219h79.234375v39.613281h-15.121094v-24.496094h-48.992187v50.652344l64.113281 16.027344zm0 0"/><path d="m284.367188 255.546875h-79.234376v-39.617187h15.121094v24.496093h48.992188v-50.652343l-64.113282-16.027344v-77.574219h79.234376v39.613281h-15.121094v-24.496094h-48.992188v50.652344l64.113282 16.027344zm0 0"/><path d="m376.210938 255.546875h-63.65625v-159.375h63.65625c9.484374 0 23.589843 6.28125 23.589843 23.585937v112.199219c0 9.480469-6.28125 23.589844-23.589843 23.589844zm-48.539063-15.121094h48.539063c4.710937 0 6.316406-1.9375 7.261718-3.835937 1.097656-2.191406 1.207032-4.609375 1.207032-4.632813v-112.199219c0-4.710937-1.9375-6.316406-3.835938-7.261718-2.191406-1.097656-4.609375-1.207032-4.632812-1.207032h-48.539063zm0 0"/></g><path d="m135.785156 0v15.121094h361.09375v129.132812h-24.949218v-32.507812h-15.121094v96.167968h15.121094v-48.539062h40.070312v-159.375zm0 0" fill="#231f20"/><path d="m456.808594 336.597656h-441.6875v-321.476562h96.621094v-15.121094h-111.742188v351.714844h26.152344l8.015625 24.042968h61.09375v-24.042968h19.046875l8.015625 24.042968h61.09375v-24.042968h20.449219l16.03125 24.042968h51.675781v-24.042968h19.046875l8.015625 24.042968h61.09375v-24.042968h112.199219v-119.757813h-15.121094zm-376.667969 24.042969h-35.074219l-2.976562-8.925781h38.050781zm88.15625 0h-35.074219l-2.976562-8.925781h38.050781zm88.15625 0h-28.464844l-5.945312-8.925781h34.410156zm88.15625 0h-35.074219l-2.976562-8.925781h38.050781zm0 0" fill="#231f20"/><path d="m456.808594 79.6875h15.121094v16.027344h-15.121094zm0 0" fill="#231f20"/><path d="m424.296875 304.539062h16.03125v15.121094h-16.03125zm0 0" fill="#231f20"/><path d="m223.941406 56.097656h176.3125v15.121094h-176.3125zm0 0" fill="#231f20"/><path d="m79.6875 280.496094h176.3125v15.121094h-176.3125zm0 0" fill="#231f20"/><path d="m191.886719 56.097656h16.027343v15.121094h-16.027343zm0 0" fill="#fff"/><path d="m272.027344 280.496094h16.027344v15.121094h-16.027344zm0 0" fill="#fff"/></svg>